# xmcd
#
# Track frame offsets:
#	150
#	21280
#	40935
#	58911
#	79133
#	100321
#	118986
#	139582
#	165620
#	180016
#	200842
#	221622
#	240384
#	261505
#	284689
#	300876
#	323483
#
# Disc length: 4585 seconds
#
# Revision: 1
# Processed by: cddbd v1.5.2PL0 Copyright (c) Steve Scherf et al.
# Submitted via: audiograbber 1.81.02
#
DISCID=f211e711
DTITLE=Various Artist - Anbetung 2009
DYEAR=2008
DGENRE=Pop
TTITLE0=Johannes Falk - Die Rettung ist da
TTITLE1=Sebastian Cuthbert - In aller Welt
TTITLE2=Arne Kopfermann - Wir schaun auf dich
TTITLE3=Arne Kopfermann - Gott, der Allmächtige
TTITLE4=Johannes Falk - Jesus Christus herrscht als König
TTITLE5=Chris Mühlan - Du bist groß
TTITLE6=Lothar Kosse - Es gibt soviel mehr
TTITLE7=Lothar Kosse - Alles was sich dreht
TTITLE8=Studiochor - Treu
TTITLE9=Martin Pepper - Licht ist dein Kleid
TTITLE10=Christoph Zehendner and Andrea Adams-Frey - Spender des Lebens
TTITLE11=Andrea Adams-Frey - Danke
TTITLE12=Martin Pepper - Fiesta
TTITLE13=Danny Plett - Dich, Herr, will ich suchen
TTITLE14=Samuel Harfst - Vom sein
TTITLE15=Albert Frey - Dein Geist weht
TTITLE16=Claas P. Jambor - Befiehl du deine Wege
EXTD=www.gerth.de
EXTT0=
EXTT1=
EXTT2=
EXTT3=
EXTT4=
EXTT5=
EXTT6=
EXTT7=
EXTT8=
EXTT9=
EXTT10=
EXTT11=
EXTT12=
EXTT13=
EXTT14=
EXTT15=
EXTT16=
PLAYORDER=
